# Blender v2.90.1 OBJ File: ''
# www.blender.org
mtllib wallFlat.mtl
o wallHalf
v 0.000000 0.000000 0.000000
v 0.000000 2.800000 0.000000
v -0.000000 2.800002 -10.000000
v -0.000000 0.000002 -10.000000
v 10.000000 2.800000 0.000000
v 10.000000 0.000000 -0.000000
v 10.000000 0.000002 -10.000000
v 10.000000 2.800002 -10.000000
v 9.650000 4.500000 0.000001
v 0.350000 4.500000 0.000001
v 9.650000 10.100000 0.000002
v 0.350000 10.100000 0.000002
v 10.000000 11.100000 0.000002
v 0.000000 11.100000 0.000002
v 10.000000 11.800000 0.000002
v 0.000000 11.800000 0.000002
v 0.350000 4.500001 -9.999999
v 9.650000 4.500001 -9.999999
v 9.650000 10.100002 -9.999998
v 10.000000 11.100002 -9.999998
v -0.000000 11.100002 -9.999998
v 0.350000 10.100002 -9.999998
v 10.000000 11.800002 -9.999998
v 0.000000 11.800002 -9.999998
vt 0.000000 0.000000
vt 0.000000 11.023620
vt -39.370079 11.023620
vt -39.370079 0.000000
vt 0.000000 11.023620
vt 0.000000 0.000000
vt 39.370079 0.000000
vt 39.370079 11.023620
vt 39.370079 0.000000
vt 39.370079 11.023620
vt 37.992130 17.716539
vt 1.377953 17.716539
vt 37.992130 39.763779
vt 1.377953 39.763779
vt 39.370079 43.700790
vt 0.000000 43.700790
vt 39.370079 46.456692
vt 8.234817 46.456692
vt 0.000000 10.797160
vt 0.000000 17.630449
vt -39.370079 17.630449
vt -39.370079 10.797160
vt 0.000000 9.691362
vt 0.000000 2.858073
vt 39.370079 2.858073
vt 39.370079 9.691362
vt 0.000000 54.253281
vt 0.000000 50.082088
vt 39.370079 50.082088
vt 39.370079 54.253281
vt 0.000000 37.076172
vt 0.000000 41.247349
vt -39.370079 41.247349
vt -39.370079 37.076172
vt 0.000000 46.456692
vt 0.000000 43.700790
vt 39.370079 43.700790
vt 39.370079 46.456692
vt -39.370079 43.700790
vt -8.234817 46.456692
vt -39.370079 46.456692
vt -0.000000 43.700790
vt -37.992130 39.763779
vt -1.377953 39.763779
vt -37.992130 17.716539
vt -1.377953 17.716539
vt -39.370079 11.023620
vt 0.000000 11.023620
vt -39.370079 -0.000000
vt 0.000000 -0.000000
vt 8.234817 0.000000
vt 8.234817 39.370079
vt 0.000000 39.370079
vt -39.370079 39.370079
vt -39.370079 0.000000
vt 0.000000 17.716539
vt 0.000000 39.763779
vt -39.370079 39.763779
vt -39.370079 17.716539
vt 0.000000 39.763779
vt 0.000000 17.716539
vt 39.370079 17.716539
vt 39.370079 39.763779
vt 39.370079 39.370079
vt 39.370079 0.000000
vn -1.0000 0.0000 0.0000
vn 1.0000 0.0000 0.0000
vn 0.0000 -0.0000 1.0000
vn -0.9795 0.2017 0.0000
vn 0.9795 0.2017 0.0000
vn 0.9439 -0.3304 -0.0000
vn -0.9439 -0.3304 -0.0000
vn 0.0000 0.0000 -1.0000
vn -0.0000 -1.0000 -0.0000
vn 0.0000 1.0000 0.0000
usemtl wall
s 1
f 1/1/1 2/2/1 3/3/1
f 3/3/1 4/4/1 1/1/1
f 5/5/2 6/6/2 7/7/2
f 7/7/2 8/8/2 5/5/2
f 1/1/3 6/9/3 5/10/3
f 5/10/3 2/2/3 1/1/3
f 5/10/3 9/11/3 2/2/3
f 9/11/3 10/12/3 2/2/3
f 9/11/3 11/13/3 10/12/3
f 11/13/3 12/14/3 10/12/3
f 11/13/3 13/15/3 12/14/3
f 13/15/3 14/16/3 12/14/3
f 13/15/3 15/17/3 14/16/3
f 15/17/3 16/18/3 14/16/3
f 2/19/4 10/20/4 17/21/4
f 17/21/4 3/22/4 2/19/4
f 9/23/5 5/24/5 8/25/5
f 8/25/5 18/26/5 9/23/5
f 13/27/6 11/28/6 19/29/6
f 19/29/6 20/30/6 13/27/6
f 12/31/7 14/32/7 21/33/7
f 21/33/7 22/34/7 12/31/7
f 15/35/2 13/36/2 20/37/2
f 20/37/2 23/38/2 15/35/2
f 20/39/8 24/40/8 23/41/8
f 21/42/8 24/40/8 20/39/8
f 21/42/8 20/39/8 19/43/8
f 22/44/8 21/42/8 19/43/8
f 22/44/8 19/43/8 18/45/8
f 17/46/8 22/44/8 18/45/8
f 17/46/8 18/45/8 8/47/8
f 3/48/8 17/46/8 8/47/8
f 3/48/8 8/47/8 7/49/8
f 7/49/8 4/50/8 3/48/8
f 16/51/1 24/52/1 21/42/1 14/32/1
f 1/1/9 4/53/9 7/54/9
f 7/54/9 6/55/9 1/1/9
usemtl wallDark
f 10/56/1 12/57/1 22/58/1
f 22/58/1 17/59/1 10/56/1
f 11/60/2 9/61/2 18/62/2
f 18/62/2 19/63/2 11/60/2
f 23/64/10 24/52/10 16/51/10
f 16/51/10 15/65/10 23/64/10
